<svg width="27" height="27" viewBox="0 0 33 35" fill="none" xmlns="http://www.w3.org/2000/svg">
<path d="M31.7054 28.5628C30.8776 26.5981 29.6763 24.8135 28.1684 23.3084C26.6651 21.799 24.8844 20.5955 22.9244 19.7644C22.9069 19.7557 22.8893 19.7513 22.8718 19.7425C25.6057 17.7638 27.3829 14.5408 27.3829 10.9045C27.3829 4.88065 22.5119 0 16.5 0C10.4881 0 5.61709 4.88065 5.61709 10.9045C5.61709 14.5408 7.39434 17.7638 10.1282 19.7469C10.1107 19.7557 10.0931 19.76 10.0756 19.7688C8.10963 20.5999 6.34555 21.7915 4.83159 23.3128C3.32514 24.8191 2.12405 26.6034 1.29465 28.5672C0.479845 30.4898 0.0404025 32.5511 0.000109733 34.6394C-0.00106152 34.6864 0.00715344 34.7331 0.0242708 34.7768C0.0413881 34.8205 0.0670614 34.8603 0.0997779 34.8939C0.132494 34.9275 0.171592 34.9542 0.214767 34.9724C0.257942 34.9906 0.304321 35 0.351171 35H2.98413C3.17722 35 3.33081 34.8461 3.33519 34.657C3.42296 31.2626 4.78332 28.0835 7.18809 25.674C9.67624 23.1809 12.9806 21.809 16.5 21.809C20.0194 21.809 23.3238 23.1809 25.8119 25.674C28.2167 28.0835 29.577 31.2626 29.6648 34.657C29.6692 34.8505 29.8228 35 30.0159 35H32.6488C32.6957 35 32.7421 34.9906 32.7852 34.9724C32.8284 34.9542 32.8675 34.9275 32.9002 34.8939C32.9329 34.8603 32.9586 34.8205 32.9757 34.7768C32.9928 34.7331 33.0011 34.6864 32.9999 34.6394C32.956 32.5377 32.5216 30.4931 31.7054 28.5628ZM16.5 18.4673C14.4858 18.4673 12.5901 17.6803 11.1639 16.2513C9.73768 14.8222 8.95218 12.9227 8.95218 10.9045C8.95218 8.88631 9.73768 6.98681 11.1639 5.55779C12.5901 4.12877 14.4858 3.34171 16.5 3.34171C18.5142 3.34171 20.4099 4.12877 21.8361 5.55779C23.2623 6.98681 24.0478 8.88631 24.0478 10.9045C24.0478 12.9227 23.2623 14.8222 21.8361 16.2513C20.4099 17.6803 18.5142 18.4673 16.5 18.4673Z" fill="white"/>
</svg>
